<svg xmlns="http://www.w3.org/2000/svg" width="32" height="32"><path fill="#131A30" fill-rule="evenodd" d="M20.322 17.76l-.077-.009h-2.223c-.416 0-.559.233-.602.383a4.63 4.63 0 01-8.911 0 .59.59 0 00-.548-.383H5.685l-.079.01a.862.862 0 00-.734 1.056 8.325 8.325 0 0016.186 0 .863.863 0 00-.736-1.056m-8.347-3.522l.078.01h2.222c.417 0 .56-.233.602-.383a4.632 4.632 0 018.911 0c.043.15.246.383.549.383h2.276l.078-.01a.863.863 0 00.735-1.056 8.325 8.325 0 00-16.186 0c-.12.5.224.994.735 1.056M32 16c0 8.836-7.163 16-16 16-8.836 0-16-7.164-16-16C0 7.163 7.164 0 16 0c8.837 0 16 7.163 16 16"/></svg>